# xmcd CD database file
#
# Track frame offsets:
#	150
#	27935
#	53060
#	76076
#	95381
#	122850
#	147848
#	166786
#	190717
#
# Disc length: 2737 seconds
#
# Revision: 0
# Processed by: cddbd v1.4PL0 Copyright (c) Steve Scherf et al.
# Submitted via: CDex 1.50
#
DISCID=670aaf09
DTITLE=Twana Rhodes - Calling Card
DYEAR=2003
DGENRE=Jazz
TTITLE0=Am I Blue
TTITLE1=I Should Have Known
TTITLE2=Antonio's Song
TTITLE3=What's Goin' On
TTITLE4=Solo
TTITLE5=Jezebel
TTITLE6=Healing The Nations
TTITLE7=Obsession
TTITLE8=Kind Of Woman
EXTD=YEAR: 2003
EXTT0=
EXTT1=
EXTT2=
EXTT3=
EXTT4=
EXTT5=
EXTT6=
EXTT7=
EXTT8=
PLAYORDER=
